<svg xmlns="http://www.w3.org/2000/svg" version="1.1" xmlns:xlink="http://www.w3.org/1999/xlink" xmlns:svgjs="http://svgjs.dev/svgjs" width="1500" height="1500" viewBox="0 0 1500 1500"><rect width="1500" height="1500" fill="#ffffff"></rect><g transform="matrix(0.6666666666666666,0,0,0.6666666666666666,250,250.00049260245163)"><svg viewBox="0 0 280 280" data-background-color="#ffffff" preserveAspectRatio="xMidYMid meet" height="1500" width="1500" xmlns="http://www.w3.org/2000/svg" xmlns:xlink="http://www.w3.org/1999/xlink"><g id="tight-bounds" transform="matrix(1,0,0,1,0,0.00013792868634254773)"><svg viewBox="0 0 280 280" height="280" width="280"><g><svg viewBox="0 0 280 280" height="280" width="280"><g><svg viewBox="0 0 280 280" height="280" width="280"><g id="textblocktransform"><svg viewBox="0 0 280 280" height="280" width="280" id="textblock"><g><svg viewBox="0 0 280 280" height="280" width="280"><g transform="matrix(1,0,0,1,90.50252531694167,96.93940048891804)"><svg viewBox="0 0 98.99494936611664 86.12119902216392" height="86.12119902216392" width="98.99494936611664"><g id="icon-0"><svg xmlns="http://www.w3.org/2000/svg" xmlns:xlink="http://www.w3.org/1999/xlink" version="1.1" x="0" y="0" viewBox="5.00061930592087 10.853249999999996 89.99972010186923 78.29575" enable-background="new 0 0 100 100" xml:space="preserve" height="86.12119902216392" width="98.99494936611664" class="icon-xg-0" data-fill-palette-color="accent" id="xg-0"><path fill-rule="evenodd" clip-rule="evenodd" d="M37.113 51.44c0 2.103-1.703 3.809-3.807 3.809-2.106 0-3.81-1.706-3.81-3.809 0-2.105 1.703-3.808 3.81-3.808C35.41 47.633 37.113 49.335 37.113 51.44z" fill="#4b91f1" data-fill-palette-color="accent"></path><path fill-rule="evenodd" clip-rule="evenodd" d="M27.941 57.795c-2 3.959-3.912 12.811-3.912 12.811-0.261 0.725 0.11 1.524 0.835 1.789 0.724 0.263 1.521-0.111 1.785-0.835l2.587-8.529 0.004 2.895-3.985 12.713h4.343v8.837c0 0.921 0.743 1.673 1.661 1.673 0.92 0 1.663-0.752 1.663-1.673v-8.371c0-0.258 0.172-0.466 0.385-0.466 0.21 0 0.383 0.208 0.383 0.466v8.371c0 0.921 0.744 1.673 1.661 1.673 0.919 0 1.662-0.752 1.662-1.673v-8.837h4.344l-4-12.713 0.003-2.895 2.602 8.529c0.265 0.724 1.06 1.098 1.786 0.835 0.724-0.265 1.098-1.064 0.832-1.789 0 0-1.907-8.852-3.907-12.81-0.465-0.915-1.863-1.538-2.891-1.538h-4.952C29.803 56.258 28.402 56.881 27.941 57.795z" fill="#4b91f1" data-fill-palette-color="accent"></path><circle fill-rule="evenodd" clip-rule="evenodd" cx="55.559" cy="68.983" r="2.0" fill="#4b91f1" data-fill-palette-color="accent"></circle><path fill-rule="evenodd" clip-rule="evenodd" d="M52.689 72.382c-1.069 2.117-2.091 6.849-2.091 6.849-0.141 0.388 0.059 0.814 0.444 0.959 0.389 0.139 0.814-0.061 0.957-0.447l1.383-4.562 0.001 1.55-2.13 6.797h2.32v4.722c0 0.498 0.399 0.898 0.889 0.898 0.494 0 0.891-0.4 0.891-0.898v-4.473c0-0.139 0.091-0.249 0.206-0.249 0.113 0 0.204 0.11 0.204 0.249v4.473c0 0.498 0.398 0.898 0.888 0.898 0.495 0 0.891-0.4 0.891-0.898v-4.722h2.32l-2.138-6.797 0.002-1.55 1.393 4.562c0.141 0.387 0.567 0.586 0.954 0.447 0.386-0.145 0.587-0.571 0.444-0.959 0 0-1.021-4.731-2.09-6.849-0.249-0.491-0.995-0.823-1.545-0.823h-2.648C53.687 71.559 52.938 71.891 52.689 72.382z" fill="#4b91f1" data-fill-palette-color="accent"></path><path fill-rule="evenodd" clip-rule="evenodd" d="M68.012 53.78c-2.104 0-3.808-1.708-3.808-3.809 0-2.102 1.704-3.81 3.808-3.81 2.104 0 3.808 1.708 3.808 3.81C71.819 52.072 70.116 53.78 68.012 53.78z" fill="#4b91f1" data-fill-palette-color="accent"></path><path fill-rule="evenodd" clip-rule="evenodd" d="M76.054 61.461l-0.002 9.424c0 0.957-0.736 1.73-1.695 1.73-0.957 0-1.603-0.773-1.603-1.73v-8.482c0-0.314-0.556-0.314-0.556 0v24.834c0 1.053-0.854 1.911-1.912 1.911h-0.002c-1.054 0-1.907-0.858-1.907-1.911V72.636c0-0.212-0.204-0.384-0.365-0.384s-0.364 0.172-0.364 0.384v14.601c0 1.053-0.854 1.911-1.909 1.911h-0.003c-1.055 0-1.91-0.858-1.91-1.911V62.402c0-0.314-0.568-0.314-0.568 0v8.482c0 0.957-0.664 1.73-1.619 1.73-0.959 0-1.667-0.773-1.667-1.73l-0.012-9.424c0-4.327 3.856-6.688 8.053-6.688C72.211 54.773 76.054 57.134 76.054 61.461z" fill="#4b91f1" data-fill-palette-color="accent"></path><circle fill-rule="evenodd" clip-rule="evenodd" cx="47.719" cy="68.913" r="2.0" fill="#4b91f1" data-fill-palette-color="accent"></circle><path fill-rule="evenodd" clip-rule="evenodd" d="M51.872 74.849l-0.002 4.864c0 0.493-0.38 0.895-0.876 0.895-0.494 0-0.825-0.401-0.825-0.895v-4.38c0-0.162-0.289-0.162-0.289 0v12.826c0 0.543-0.44 0.988-0.984 0.988h-0.002c-0.547 0-0.986-0.445-0.986-0.988v-7.541c0-0.11-0.106-0.196-0.188-0.196-0.084 0-0.188 0.086-0.188 0.196v7.541c0 0.543-0.445 0.988-0.986 0.988h-0.003c-0.544 0-0.986-0.445-0.986-0.988V75.333c0-0.162-0.294-0.162-0.294 0v4.38c0 0.493-0.343 0.895-0.835 0.895-0.497 0-0.862-0.401-0.862-0.895l-0.004-4.864c0-2.236 1.987-3.453 4.158-3.453C49.886 71.396 51.872 72.612 51.872 74.849z" fill="#4b91f1" data-fill-palette-color="accent"></path><path d="M93.405 36.83l-11.538-7.058V15.918h-8.333v8.757L51.739 11.343c-1.067-0.653-2.411-0.653-3.479 0L6.595 36.83c-1.57 0.959-2.065 3.013-1.104 4.582 0.852 1.392 2.556 1.934 4.026 1.372v46.363h6.667V38.778L50 18.094l33.816 20.685v50.369h6.667V42.783c0.384 0.146 0.783 0.225 1.18 0.225 1.122 0 2.219-0.568 2.847-1.596C95.471 39.843 94.976 37.789 93.405 36.83z" fill="#4b91f1" data-fill-palette-color="accent"></path></svg></g></svg></g><g id="text-0"><path d="M7.322 79.294l1.389-3.792 26.573 9.738-1.39 3.792-11.846-4.341-5.594 15.263 11.847 4.342-1.393 3.801-26.573-9.738 1.393-3.801 11.424 4.186 5.594-15.264z" fill="#4b91f1" data-fill-palette-color="primary"></path><path d="M99.659 0.963c3.025-1.211 5.739-1.28 8.143-0.208 2.404 1.072 4.272 3.272 5.604 6.6v0l6.535 16.326-3.712 1.486-6.489-16.213c-0.922-2.303-2.222-3.809-3.9-4.518-1.679-0.708-3.508-0.666-5.489 0.127v0c-2.177 0.871-3.647 2.179-4.41 3.923-0.769 1.747-0.643 3.895 0.378 6.446v0l6.28 15.691-3.721 1.489-6.489-16.213c-0.932-2.329-2.203-3.854-3.814-4.574-1.604-0.724-3.396-0.689-5.377 0.103v0c-2.202 0.881-3.698 2.207-4.487 3.977-0.786 1.761-0.672 3.907 0.341 6.438v0l6.281 15.69-3.759 1.505-10.517-26.274 3.607-1.444 1.531 3.825c0.257-1.615 0.946-3.066 2.069-4.352 1.12-1.293 2.62-2.315 4.499-3.067v0c1.949-0.78 3.788-1.065 5.517-0.854 1.72 0.207 3.195 0.865 4.424 1.974v0c0.267-1.737 1.004-3.287 2.213-4.652 1.206-1.371 2.787-2.448 4.742-3.231z" fill="#4b91f1" data-fill-palette-color="primary"></path><path d="M184.972 32.138l11.997-25.631 3.667 1.716-10.506 22.446 13.88 6.497-1.491 3.186z" fill="#4b91f1" data-fill-palette-color="primary"></path><path d="M278.049 92.563l1.631 3.661-18.166 8.092c-3.748 1.67-7.062 1.952-9.942 0.846-2.883-1.111-5.108-3.426-6.675-6.943v0c-0.943-2.117-1.474-4.19-1.594-6.218-0.126-2.026 0.151-3.899 0.832-5.62v0l3.593 0.302c-1.207 3.254-1.042 6.605 0.494 10.055v0c2.257 5.068 6.095 6.396 11.512 3.983v0l2.624-1.169c-3.281-0.598-5.728-2.709-7.342-6.333v0c-1.448-3.25-1.635-6.192-0.563-8.826 1.069-2.625 3.341-4.712 6.816-6.26v0l8.639-3.848 1.643 3.69-8.49 3.781c-2.515 1.12-4.149 2.587-4.901 4.399-0.758 1.815-0.65 3.819 0.326 6.011v0c1.051 2.36 2.57 3.911 4.557 4.652 1.978 0.738 4.333 0.499 7.067-0.719v0z" fill="#4b91f1" data-fill-palette-color="primary"></path><path d="M40.345 192.39l1.39 3.792-26.573 9.737-1.39-3.792 11.847-4.341-5.594-15.264-11.846 4.342-1.393-3.802 26.572-9.738 1.394 3.802-11.424 4.186 5.593 15.264z" fill="#4b91f1" data-fill-palette-color="primary"></path><path d="M112.971 249.562c3.025 1.211 5.038 3.033 6.039 5.467 1.001 2.434 0.835 5.316-0.498 8.645v0l-6.535 16.326-3.711-1.486 6.489-16.212c0.922-2.303 1.02-4.291 0.294-5.962-0.726-1.671-2.08-2.903-4.06-3.695v0c-2.177-0.871-4.143-0.939-5.899-0.203-1.762 0.734-3.153 2.376-4.175 4.926v0l-6.28 15.691-3.721-1.49 6.49-16.212c0.932-2.329 1.064-4.31 0.396-5.943-0.662-1.63-1.983-2.842-3.964-3.634v0c-2.202-0.881-4.199-0.954-5.992-0.218-1.784 0.732-3.182 2.364-4.195 4.895v0l-6.28 15.691-3.759-1.505 10.517-26.274 3.607 1.444-1.531 3.825c1.3-0.992 2.8-1.566 4.5-1.723 1.702-0.163 3.493 0.132 5.372 0.884v0c1.949 0.78 3.477 1.843 4.583 3.189 1.102 1.337 1.716 2.831 1.841 4.481v0c1.391-1.073 2.995-1.687 4.811-1.84 1.819-0.16 3.706 0.151 5.661 0.933z" fill="#4b91f1" data-fill-palette-color="primary"></path><path d="M194.056 271.056l-11.997-25.631 3.667-1.717 10.506 22.447 13.881-6.498 1.491 3.186z" fill="#4b91f1" data-fill-palette-color="primary"></path><path d="M245.921 176.912l1.631-3.661 18.165 8.091c3.748 1.67 6.175 3.944 7.28 6.824 1.102 2.886 0.87 6.088-0.697 9.606v0c-0.943 2.117-2.128 3.898-3.555 5.345-1.421 1.449-2.999 2.496-4.735 3.14v0l-2.178-2.873c3.226-1.279 5.607-3.643 7.143-7.093v0c2.257-5.068 0.678-8.809-4.739-11.221v0l-2.624-1.169c1.75 2.839 1.818 6.07 0.204 9.694v0c-1.448 3.25-3.509 5.358-6.185 6.322-2.667 0.961-5.737 0.668-9.212-0.879v0l-8.639-3.848 1.643-3.69 8.49 3.782c2.515 1.12 4.698 1.354 6.549 0.701 1.857-0.65 3.273-2.072 4.249-4.263v0c1.051-2.36 1.188-4.526 0.41-6.5-0.774-1.964-2.528-3.555-5.261-4.772v0z" fill="#4b91f1" data-fill-palette-color="primary"></path><path d="M0.236 141.893c0-6.04 4.896-10.936 10.936-10.936 6.04 0 10.936 4.896 10.936 10.936 0 6.04-4.896 10.936-10.936 10.936-6.04 0-10.936-4.896-10.936-10.936z" fill="#4b91f1" data-fill-palette-color="primary"></path><path d="M257.892 141.893c0-6.04 4.896-10.936 10.936-10.936 6.04 0 10.936 4.896 10.936 10.936 0 6.04-4.896 10.936-10.936 10.936-6.04 0-10.936-4.896-10.936-10.936z" fill="#4b91f1" data-fill-palette-color="primary"></path></g><g id="text-1"></g></svg></g></svg></g></svg></g></svg></g><defs></defs></svg><rect width="280" height="280" fill="none" stroke="none" visibility="hidden"></rect></g></svg></g></svg>