<svg xmlns="http://www.w3.org/2000/svg" version="1.1" xmlns:xlink="http://www.w3.org/1999/xlink" xmlns:svgjs="http://svgjs.dev/svgjs" width="200" height="100" viewBox="0 0 2000 1247"><g transform="matrix(1,0,0,1,-1.2121212121212466,0.504858299595071)"><svg viewBox="0 0 396 247" data-background-color="#87c5ff" preserveAspectRatio="xMidYMid meet" height="1247" width="2000" xmlns="http://www.w3.org/2000/svg" xmlns:xlink="http://www.w3.org/1999/xlink"><g id="tight-bounds" transform="matrix(1,0,0,1,0.2400000000000091,-0.09999999999999432)"><svg viewBox="0 0 395.52 247.2" height="247.2" width="395.52"><g><svg></svg></g><g><svg viewBox="0 0 395.52 247.2" height="247.2" width="395.52"><g transform="matrix(1,0,0,1,75.54432000000001,81.25478514256952)"><svg viewBox="0 0 244.43135999999996 84.69042971486095" height="84.69042971486095" width="244.43135999999996"><g><svg viewBox="0 0 435.98142541856464 151.05858048" height="84.69042971486095" width="244.43135999999996"><g transform="matrix(1,0,0,1,191.55006541856463,41.22551947248053)"><svg viewBox="0 0 244.43135999999998 68.60754153503893" height="68.60754153503893" width="244.43135999999998"><g id="textblocktransform"><svg viewBox="0 0 244.43135999999998 68.60754153503893" height="68.60754153503893" width="244.43135999999998" id="textblock"><g><svg viewBox="0 0 244.43135999999998 68.60754153503893" height="68.60754153503893" width="244.43135999999998"><g transform="matrix(1,0,0,1,0,0)"><svg width="244.43135999999998" viewBox="4.45 -37.85 134.84 37.85" height="68.60754153503893" data-palette-color="#4d98e4"><path d="M9.9 0L4.45 0 4.45-36.25 9.9-36.25 9.9-20.85 28.05-20.85 28.05-36.25 33.55-36.25Q33.55-35.6 33.55-33.83 33.55-32.05 33.55-29.6 33.55-27.15 33.55-24.18 33.55-21.2 33.52-18.13 33.5-15.05 33.5-12.08 33.5-9.1 33.5-6.65 33.5-4.2 33.5-2.43 33.5-0.65 33.5 0L33.5 0 28.05 0 28.05-15.65 9.9-15.65 9.9 0ZM42.45 0L42.45-37.85Q42.9-37.15 44.32-35.18 45.75-33.2 47.62-30.6 49.5-28 51.6-25.08 53.7-22.15 55.55-19.58 57.4-17 58.77-15.1 60.15-13.2 60.6-12.6L60.6-12.6Q60.75-12.85 61.55-13.95 62.35-15.05 63.52-16.7 64.7-18.35 66.2-20.43 67.7-22.5 69.27-24.68 70.85-26.85 72.37-29 73.9-31.15 75.2-32.93 76.5-34.7 77.42-36.02 78.35-37.35 78.75-37.85L78.75-37.85 78.75 0 72.95 0 72.95-20.3Q72.95-20.7 73.02-21.15 73.1-21.6 73.1-21.8L73.1-21.8Q72.65-21.2 71.67-19.78 70.7-18.35 69.42-16.53 68.15-14.7 66.75-12.68 65.35-10.65 64.1-8.85 62.85-7.05 61.9-5.68 60.95-4.3 60.6-3.75L60.6-3.75Q60.25-4.2 59.22-5.63 58.2-7.05 56.82-8.95 55.45-10.85 53.92-13 52.4-15.15 51.1-17 49.8-18.85 48.85-20.18 47.9-21.5 47.75-21.8L47.75-21.8Q47.75-21.6 47.82-21.15 47.9-20.7 47.9-20.3L47.9-20.3 47.9 0 42.45 0ZM111.15 0L87.65 0 87.65-36.25 93.15-36.25 93.15-5.2 111.15-5.2 111.15 0ZM139.29-36.25L125.94-11.95 125.94 0 120.44 0 120.44-11.95Q120.09-12.5 119.07-14.35 118.04-16.2 116.67-18.73 115.29-21.25 113.72-24.1 112.14-26.95 110.77-29.48 109.39-32 108.37-33.85 107.34-35.7 106.99-36.25L106.99-36.25 113.19-36.25Q113.64-35.5 114.79-33.38 115.94-31.25 117.34-28.58 118.74-25.9 120.19-23.18 121.64-20.45 122.64-18.5L122.64-18.5 123.19-16.85Q123.39-17.25 123.54-17.68 123.69-18.1 123.84-18.5L123.84-18.5Q124.89-20.45 126.29-23.18 127.69-25.9 129.07-28.58 130.44-31.25 131.57-33.38 132.69-35.5 133.14-36.25L133.14-36.25 139.29-36.25Z" opacity="1" transform="matrix(1,0,0,1,0,0)" fill="#4d98e4" class="wordmark-text-0" data-fill-palette-color="primary" id="text-0"></path></svg></g></svg></g></svg></g></svg></g><g><svg viewBox="0 0 151.05858048 151.05858048" height="151.05858048" width="151.05858048"><g><svg viewBox="0 0 151.05858048 151.05858048" height="151.05858048" width="151.05858048"><g transform="matrix(1,0,0,1,39.92444136872605,39.92444136872605)"><svg viewBox="0 0 71.20969774254789 71.20969774254789" height="71.20969774254789" width="71.20969774254789"><g><svg xmlns="http://www.w3.org/2000/svg" viewBox="5 5 90 90" x="0" y="0" height="71.20969774254789" width="71.20969774254789" class="icon-cg-0" data-fill-palette-color="accent" id="cg-0"><path d="M19.8 40.5h60.5v11H19.8zM19.8 69.5h20.5v11H19.8zM59.8 80.5h20.5v-11H59.8" fill="#4d98e4" data-fill-palette-color="accent"></path><path d="M5 26.3V89c0 3.3 2.7 6 6 6h78c3.3 0 6-2.7 6-6V26.3H5z m39.3 56.2c0 1.1-0.9 2-2 2H17.8c-1.2 0-2-0.9-2-2v-15c0-1.1 0.9-2 2-2h24.5c1.1 0 2 0.9 2 2v15z m40 0c0 1.1-0.9 2-2 2H57.8c-1.1 0-2-0.9-2-2v-15c0-1.1 0.9-2 2-2h24.4c1.2 0 2 0.9 2.1 2v15z m0-29c0 1.1-0.9 2-2 2H17.8c-1.2 0-2-0.9-2-2v-15c0-1.1 0.9-2 2-2h64.5c1.1 0 2 0.9 2 2v15zM95 22.3V11c0-3.3-2.7-6-6-6H11c-3.3 0-6 2.7-6 6v11.3h90z m-9-9.1c1.1 0 2 0.9 2 2s-0.9 2-2 2-2-0.9-2-2 0.9-2 2-2z m-8.5 0c1.1 0 2 0.9 2 2s-0.9 2-2 2-2-0.9-2-2 0.9-2 2-2z m-8.5 0c1.1 0 2 0.9 2 2s-0.9 2-2 2-2-0.9-2-2 0.9-2 2-2z" fill="#4d98e4" data-fill-palette-color="accent"></path></svg></g></svg></g><g id="text-0"><path d="M18.846 59.613l-1.035 2.678-17.811-6.882 1.035-2.679 7.566 2.924 3.449-8.924-7.566-2.924 1.042-2.697c0.212 0.082 0.609 0.235 1.189 0.46 0.587 0.227 1.28 0.495 2.079 0.803 0.805 0.311 1.695 0.655 2.669 1.031 0.974 0.376 1.962 0.762 2.965 1.157 1.003 0.395 1.991 0.78 2.965 1.156 0.98 0.379 1.87 0.723 2.668 1.032 0.805 0.311 1.498 0.579 2.079 0.803 0.581 0.224 0.977 0.378 1.189 0.46v0l-1.034 2.678-7.689-2.971-3.448 8.924z" fill="#4d98e4" data-fill-palette-color="accent"></path><path d="M47.029 26.064l-7.319-18.546c0.24 0.171 0.722 0.489 1.444 0.952 0.72 0.457 1.553 0.992 2.5 1.603 0.944 0.606 1.95 1.249 3.017 1.929 1.063 0.688 2.063 1.334 2.998 1.936 0.936 0.602 1.75 1.126 2.445 1.572 0.691 0.439 1.151 0.729 1.379 0.869v0c0.018-0.101 0.086-0.383 0.205-0.847 0.119-0.464 0.263-1.039 0.431-1.725 0.172-0.694 0.367-1.476 0.585-2.346 0.226-0.866 0.457-1.76 0.691-2.679 0.23-0.911 0.457-1.814 0.68-2.708 0.22-0.9 0.431-1.724 0.632-2.473 0.192-0.752 0.353-1.402 0.483-1.949 0.133-0.556 0.233-0.941 0.3-1.155v0l7.319 18.546-2.839 1.121-3.925-9.946c-0.052-0.131-0.094-0.276-0.128-0.435-0.038-0.151-0.07-0.26-0.098-0.328v0c-0.065 0.256-0.163 0.68-0.296 1.272-0.136 0.586-0.294 1.26-0.476 2.022-0.181 0.762-0.372 1.564-0.572 2.406-0.194 0.839-0.38 1.636-0.557 2.389-0.174 0.745-0.328 1.403-0.462 1.974-0.134 0.571-0.222 0.969-0.263 1.194v0c-0.175-0.097-0.519-0.313-1.034-0.65-0.52-0.334-1.128-0.724-1.821-1.17-0.691-0.439-1.428-0.911-2.21-1.415-0.776-0.507-1.494-0.979-2.156-1.416-0.662-0.437-1.233-0.809-1.714-1.115-0.483-0.313-0.766-0.511-0.849-0.593v0c0.027 0.068 0.078 0.171 0.153 0.306 0.084 0.14 0.152 0.275 0.203 0.405v0l3.925 9.946z" fill="#4d98e4" data-fill-palette-color="accent"></path><path d="M108.32 27.829l-11.26-5.142 7.931-17.369 2.64 1.205-6.794 14.876 8.621 3.937z" fill="#4d98e4" data-fill-palette-color="accent"></path><path d="M151.059 54.26l-14.559-1.124-5.735 2.596-1.196-2.643 5.734-2.596c0.127-0.19 0.412-0.583 0.855-1.18 0.442-0.597 0.967-1.297 1.572-2.101 0.612-0.806 1.258-1.668 1.938-2.585 0.688-0.914 1.335-1.773 1.941-2.576 0.609-0.812 1.137-1.514 1.582-2.104 0.442-0.597 0.726-0.993 0.85-1.189v0l1.35 2.981c-0.18 0.251-0.525 0.715-1.033 1.394-0.511 0.672-1.096 1.425-1.754 2.259-0.649 0.838-1.305 1.685-1.968 2.544-0.662 0.858-1.231 1.589-1.706 2.194v0l-0.68 0.616c0.158 0.009 0.316 0.008 0.472-0.004 0.162-0.015 0.319-0.027 0.468-0.036v0c0.774 0.054 1.697 0.106 2.771 0.156 1.076 0.057 2.14 0.111 3.193 0.164 1.058 0.05 2.007 0.101 2.847 0.155 0.84 0.053 1.413 0.095 1.72 0.125v0z" fill="#4d98e4" data-fill-palette-color="accent"></path><path d="M8.577 103.72l-1.035-2.679 17.811-6.882 1.035 2.678-7.566 2.924 3.449 8.924 7.566-2.924 1.042 2.697c-0.212 0.082-0.609 0.235-1.189 0.46-0.581 0.224-1.274 0.492-2.079 0.803-0.799 0.309-1.689 0.653-2.669 1.031-0.974 0.376-1.965 0.756-2.972 1.138-1.008 0.382-1.998 0.761-2.972 1.138-0.98 0.379-1.87 0.723-2.669 1.031-0.805 0.311-1.498 0.579-2.079 0.803-0.581 0.224-0.977 0.378-1.189 0.46v0l-1.035-2.678 7.688-2.971-3.449-8.924z" fill="#4d98e4" data-fill-palette-color="accent"></path><path d="M42.988 143.541l7.319-18.546c0.059 0.289 0.195 0.847 0.408 1.672 0.211 0.832 0.455 1.791 0.731 2.879 0.274 1.094 0.568 2.253 0.883 3.478 0.306 1.229 0.596 2.383 0.868 3.462 0.272 1.079 0.51 2.018 0.712 2.817 0.205 0.793 0.343 1.319 0.414 1.577v0c0.082-0.061 0.325-0.221 0.729-0.479 0.404-0.258 0.901-0.58 1.492-0.965 0.6-0.389 1.279-0.826 2.039-1.31 0.753-0.487 1.528-0.983 2.326-1.49 0.797-0.506 1.583-1.012 2.358-1.519 0.773-0.501 1.487-0.96 2.142-1.378 0.652-0.412 1.215-0.772 1.689-1.081 0.471-0.318 0.804-0.532 0.998-0.643v0l-7.319 18.546-2.839-1.12 3.925-9.945c0.052-0.131 0.119-0.266 0.203-0.406 0.081-0.133 0.136-0.234 0.163-0.303v0c-0.228 0.14-0.592 0.378-1.091 0.714-0.502 0.342-1.079 0.729-1.732 1.162-0.653 0.433-1.337 0.89-2.052 1.37-0.721 0.478-1.404 0.932-2.048 1.361-0.636 0.425-1.198 0.801-1.686 1.127-0.488 0.325-0.824 0.556-1.007 0.692v0c-0.062-0.19-0.166-0.583-0.311-1.18-0.152-0.6-0.329-1.299-0.532-2.099-0.205-0.793-0.418-1.64-0.638-2.54-0.22-0.9-0.426-1.737-0.617-2.51-0.185-0.771-0.347-1.436-0.487-1.994-0.142-0.552-0.215-0.887-0.219-1.004v0c-0.027 0.068-0.056 0.179-0.088 0.332-0.04 0.157-0.086 0.301-0.138 0.431v0l-3.925 9.946z" fill="#4d98e4" data-fill-palette-color="accent"></path><path d="M112.901 141.545l-11.269 5.146-7.933-17.369 2.64-1.205 6.794 14.876 8.629-3.941z" fill="#4d98e4" data-fill-palette-color="accent"></path><path d="M126.296 93.898l8.763 11.681 5.734 2.596-1.196 2.643-5.735-2.596c-0.227 0.03-0.71 0.075-1.45 0.137-0.74 0.062-1.616 0.128-2.625 0.2-1.004 0.075-2.077 0.158-3.221 0.25-1.135 0.089-2.207 0.169-3.217 0.241-1.006 0.081-1.878 0.149-2.616 0.204-0.74 0.062-1.225 0.11-1.454 0.146v0l1.349-2.982c0.301-0.033 0.878-0.08 1.729-0.143 0.842-0.059 1.796-0.12 2.86-0.182 1.055-0.059 2.123-0.122 3.205-0.191 1.082-0.069 2.007-0.124 2.775-0.165v0l0.915 0.095c-0.1-0.119-0.207-0.233-0.318-0.343-0.118-0.112-0.23-0.222-0.337-0.329v0c-0.47-0.617-1.04-1.345-1.71-2.185-0.668-0.846-1.329-1.682-1.984-2.507-0.661-0.828-1.248-1.575-1.762-2.241-0.52-0.669-0.866-1.13-1.038-1.384v0z" fill="#4d98e4" data-fill-palette-color="accent"></path><path d="M2.139 79.682c0-4.206 3.41-7.616 7.616-7.616 4.206 0 7.616 3.41 7.617 7.616 0 4.206-3.41 7.616-7.617 7.617-4.206 0-7.616-3.41-7.616-7.617z" fill="#4d98e4" data-fill-palette-color="accent"></path><path d="M133.863 79.682c0-4.206 3.41-7.616 7.616-7.616 4.206 0 7.616 3.41 7.616 7.616 0 4.206-3.41 7.616-7.616 7.617-4.206 0-7.616-3.41-7.616-7.617z" fill="#4d98e4" data-fill-palette-color="accent"></path></g><g id="text-1"></g></svg></g></svg></g></svg></g></svg></g><g><path d="M0 123.6c0-68.262 55.338-123.6 123.6-123.6 51.667 0 95.929 31.702 114.397 76.715h-1.877c-18.369-44.032-61.83-74.98-112.52-74.981-67.305 0-121.866 54.561-121.866 121.866 0 67.305 54.561 121.866 121.866 121.866 50.69 0 94.151-30.948 112.52-74.981h1.877c-18.468 45.013-62.73 76.715-114.397 76.715-68.262 0-123.6-55.338-123.6-123.6z" fill="#4d98e4" stroke="transparent" data-fill-palette-color="tertiary"></path></g></svg></g><defs></defs></svg><rect width="395.52" height="247.2" fill="none" stroke="none" visibility="hidden"></rect></g></svg></g></svg>